Coordinates
version=1
nRows=16
nColumns=33
inDegrees=yes

Units are S.I. units (second, meters, Newtons, ...)
Angles are in degrees.

endheader
time	ground_thorax_rot_x	ground_thorax_rot_y	ground_thorax_rot_z	ground_thorax_tx	ground_thorax_ty	ground_thorax_tz	clav_prot_r	clav_elev_r	scapula_abduction_r	scapula_elevation_r	scapula_upward_rot_r	scapula_winging_r	shoulder_elv_r	plane_of_elev_r	axial_rot_r	elbow_flexion_r	pro_sup_r	wrist_flex_r	wrist_dev_r	clav_prot_l	clav_elev_l	scapula_abduction_l	scapula_elevation_l	scapula_upward_rot_l	scapula_winging_l	shoulder_elv_l	plane_of_elev_l	axial_rot_l	elbow_flexion_l	pro_sup_l	wrist_flex_l	wrist_dev_l
      5.77000000	     36.69370612	     10.49758141	     15.22424756	   -233.40728661	    822.83427926	      0.53032822	     15.62819482	     37.69131134	     38.79919097	     45.00000000	    -45.00000000	   2792.36028138	  -2448.51758156	     31.76972926	     58.32263006	   1464.78953748	    147.42964304	     13.52299732	      4.31341379	     10.55583501	    -45.00000000	    -37.44156410	     45.00000000	    -45.00000000	  -2780.79887005	   -452.72035120	    136.06462840	   -174.02675730	   2166.06280207	     35.15708263	      6.53318006	    -24.41969596
      5.78000000	     36.68048013	     10.47204283	     15.31045404	   -233.38726125	    822.17505902	      0.53819297	     15.49318140	     38.01370624	     38.74914154	     45.00000000	    -45.00000000	   2792.31257098	  -2448.63311149	     31.88075991	     58.44355838	   1464.83355882	    147.46231620	     13.15006006	      4.06411985	     10.40588203	    -45.00000000	    -37.41915195	     45.00000000	    -44.84273479	  -2780.79887125	   -452.86428220	    136.09037635	   -174.10504080	   2166.17674702	     36.58073193	      6.30431100	    -24.21682154
      5.79000000	     36.67925158	     10.57994699	     15.42341983	   -233.15780002	    821.52114048	      0.53507568	     15.59746983	     37.81832990	     38.63681020	     45.00000000	    -45.00000000	   2792.40996944	  -2448.65129629	     31.78159113	     58.48629326	   1464.96235597	    147.63545392	     13.25375238	      4.24571697	     10.46583802	    -45.00000000	    -37.28377955	     45.00000000	    -45.00000000	  -2780.90842908	   -452.86834134	    136.08627641	   -174.12498794	   2166.28686262	     37.62501094	      5.95375984	    -24.30862779
      5.80000000	     36.65391722	     10.62323642	     15.50033981	   -232.73803582	    820.87441350	      0.51921016	     15.57131523	     37.93221176	     38.61261233	     45.00000000	    -45.00000000	   2792.44977520	  -2448.77531539	     31.82268262	     58.43644619	   1464.97743952	    147.94012769	     13.16284771	      4.28445538	     10.44632214	    -45.00000000	    -37.30355964	     45.00000000	    -44.83121791	  -2780.94966979	   -452.95722637	    136.12161258	   -174.10699487	   2166.34649425	     38.43254780	      5.74211782	    -24.23058471
      5.81000000	     36.68683466	     10.67375383	     15.56541084	   -232.15243564	    820.23238092	      0.48877335	     15.55207099	     37.84851306	     38.54392679	     45.00000000	    -45.00000000	   2792.57895663	  -2448.76417224	     31.84459025	     58.28887415	   1465.01687118	    148.41140032	     13.14943683	      4.37986799	     10.49013578	    -45.00000000	    -37.23915675	     45.00000000	    -44.94976874	  -2781.01680094	   -453.02308433	    136.06690649	   -174.10041315	   2166.51234961	     39.10275412	      5.51426110	    -24.24215599
      5.82000000	     36.63775223	     10.81707609	     15.69982955	   -231.44187854	    819.60762784	      0.44441139	     15.32034929	     37.77682221	     38.38161677	     45.00000000	    -45.00000000	   2792.77206296	  -2448.64097544	     31.86153260	     58.02947883	   1465.14070008	    148.98619546	     13.08930494	      4.44586838	     10.61906754	    -45.00000000	    -37.39611380	     45.00000000	    -44.98683786	  -2781.01312321	   -453.09237103	    136.07335438	   -174.03055835	   2166.61660501	     39.61651313	      5.31726184	    -24.18283466
      5.83000000	     36.58849478	     11.05197072	     15.86526188	   -230.63487186	    818.99519284	      0.38587826	     15.39278021	     37.76316023	     38.11355418	     45.00000000	    -45.00000000	   2792.87686689	  -2448.63840549	     31.97319133	     57.76116874	   1465.25094681	    149.59533372	     13.03883247	      4.54216380	     10.62775490	    -45.00000000	    -37.44912521	     45.00000000	    -45.00000000	  -2781.14906405	   -453.06907087	    136.15742792	   -173.94431105	   2166.65023823	     40.00394135	      5.14467664	    -24.12118834
      5.84000000	     36.63523378	     11.12433928	     15.86805933	   -229.77827828	    818.40677386	      0.31680547	     15.11725391	     37.68744293	     38.14581226	     45.00000000	    -45.00000000	   2793.01173190	  -2448.59238670	     31.92396041	     57.43260264	   1465.26340075	    150.31880917	     13.00966473	      4.63509114	     10.75652802	    -45.00000000	    -37.47158846	     45.00000000	    -44.99438513	  -2781.14395076	   -453.14926960	    136.02371056	   -173.89871675	   2166.77277023	     40.36308426	      5.00828488	    -24.09255578
      5.85000000	     36.67129795	     11.11033052	     15.92104487	   -228.90218430	    817.84196762	      0.24006242	     15.25943774	     37.73764050	     38.26673917	     45.00000000	    -45.00000000	   2793.07451712	  -2448.64499358	     31.99171117	     57.21814847	   1465.24892228	    151.05442017	     13.00506845	      4.70457340	     10.71578008	    -45.00000000	    -37.39818731	     45.00000000	    -44.98114415	  -2781.25782078	   -453.18908011	    136.07864716	   -173.81973776	   2166.84003167	     40.68583690	      4.86192055	    -24.03729175
      5.86000000	     36.75420038	     11.04613446	     15.87202273	   -228.03092219	    817.30505127	      0.15763874	     15.28896132	     37.76564005	     38.54678925	     45.00000000	    -45.00000000	   2793.10074010	  -2448.81029383	     31.96521301	     57.05469625	   1465.13178784	    151.84627403	     13.01416601	      4.80321726	     10.66067153	    -45.00000000	    -37.23690255	     45.00000000	    -44.91419017	  -2781.34331252	   -453.19497725	    135.97141924	   -173.76353181	   2166.90616667	     41.00246172	      4.74302242	    -23.99782101
      5.87000000	     36.77587993	     11.15254609	     15.89460843	   -227.18203531	    816.80593698	      0.07084507	     15.32716872	     37.76445892	     38.42933043	     45.00000000	    -45.00000000	   2793.30830719	  -2448.89889848	     31.95108990	     56.92613478	   1465.35908884	    152.55858359	     12.97382333	      4.88220487	     10.62916210	    -45.00000000	    -37.23236267	     45.00000000	    -44.96568971	  -2781.40006110	   -453.37839960	    136.01483161	   -173.69166947	   2167.02136192	     41.24865018	      4.63098928	    -23.96225743
      5.88000000	     36.81131929	     11.00553091	     15.89965537	   -226.37595500	    816.36727248	     -0.01757237	     15.48231051	     37.84444421	     38.75886938	     45.00000000	    -45.00000000	   2793.13109340	  -2449.05260743	     32.13925641	     56.73362588	   1465.12154177	    153.46336963	     13.00868491	      4.96237504	     10.54563822	    -45.00000000	    -36.96112109	     45.00000000	    -44.86939290	  -2781.56275125	   -453.18446144	    135.94196117	   -173.64242605	   2166.96789758	     41.51631794	      4.52574973	    -23.88850535
      5.89000000	     36.74790252	     11.26844987	     16.10817443	   -225.59478023	    815.99868524	     -0.10744148	     15.32361955	     37.75918659	     38.53257761	     45.00000000	    -45.00000000	   2793.42756327	  -2448.71177088	     31.98426032	     56.63931248	   1465.31254990	    154.08448121	     12.95102745	      5.07043507	     10.60994232	    -45.00000000	    -37.28642686	     45.00000000	    -44.97566881	  -2781.47710573	   -453.32046512	    135.98913042	   -173.59125483	   2167.14172991	     41.62426570	      4.44246041	    -23.85993170
      5.90000000	     36.77274467	     11.12377229	     15.99686483	   -224.81746962	    815.71529481	     -0.19785786	     15.55977808	     37.88228882	     38.77490722	     45.00000000	    -45.00000000	   2793.28047596	  -2449.00811190	     32.18016930	     56.50198814	   1465.20260486	    154.78598829	     12.95599004	      5.11626191	     10.52470110	    -45.00000000	    -37.07061715	     45.00000000	    -44.93089454	  -2781.70837108	   -453.17205797	    135.98321020	   -173.57202232	   2167.09653717	     41.68433520	      4.36855301	    -23.77682445
      5.91000000	     36.73523497	     11.10170135	     16.06933150	   -224.03154764	    815.53430395	     -0.28637024	     15.49254653	     37.83237906	     38.83457631	     45.00000000	    -45.00000000	   2793.38929065	  -2448.99561552	     32.19641955	     56.30019376	   1465.19626395	    155.50862368	     12.91452719	      5.19359744	     10.56923143	    -45.00000000	    -37.07724765	     45.00000000	    -44.90270516	  -2781.68459240	   -453.16377849	    135.94780798	   -173.56998541	   2167.13900562	     41.65221472	      4.32802360	    -23.72647984
      5.92000000	     36.68111822	     11.14070208	     16.07235305	   -223.20066991	    815.45844378	     -0.37402637	     15.43194167	     37.82344401	     38.84321400	     45.00000000	    -45.00000000	   2793.46206083	  -2448.94684739	     32.17635231	     56.03144826	   1465.26022926	    156.24606131	     12.85082306	      5.23523402	     10.64685296	    -45.00000000	    -37.21128018	     45.00000000	    -44.81179681	  -2781.73375032	   -453.14089463	    135.93574973	   -173.61090159	   2167.19977258	     41.53152714	      4.29422086	    -23.66950825
